<svg width="24" height="24" viewBox="0 0 24 24" fill="none" xmlns="http://www.w3.org/2000/svg">
<g clip-path="url(#clip0_0_99)">
<path d="M18.8366 16.4092H10.2309C9.44771 16.4036 8.68919 16.1348 8.07727 15.6461C7.46536 15.1573 7.03561 14.4769 6.85715 13.7143L5.48572 8.13946C5.35954 7.62182 5.35308 7.08222 5.46681 6.5617C5.58054 6.04119 5.81147 5.55346 6.14205 5.13561C6.47262 4.71777 6.89413 4.38081 7.37451 4.15037C7.8549 3.91992 8.38151 3.80206 8.91429 3.80575H20.2286C20.7614 3.80206 21.288 3.91992 21.7684 4.15037C22.2487 4.38081 22.6702 4.71777 23.0008 5.13561C23.3314 5.55346 23.5623 6.04119 23.6761 6.5617C23.7898 7.08222 23.7833 7.62182 23.6571 8.13946L22.2857 13.728C22.1005 14.5001 21.6582 15.1862 21.0313 15.6734C20.4045 16.1607 19.6305 16.4202 18.8366 16.4092ZM8.87315 5.52003C8.60211 5.52086 8.33477 5.583 8.09115 5.70181C7.84753 5.82061 7.63395 5.993 7.46641 6.20606C7.29887 6.41911 7.1817 6.66732 7.12369 6.93208C7.06568 7.19684 7.06833 7.4713 7.13143 7.73489L8.50286 13.3235C8.59574 13.7151 8.81842 14.0638 9.13465 14.3128C9.45089 14.5618 9.84208 14.6965 10.2446 14.6949H18.8366C19.2391 14.6965 19.6303 14.5618 19.9465 14.3128C20.2627 14.0638 20.4854 13.7151 20.5783 13.3235L21.9497 7.73489C22.0142 7.47119 22.0179 7.19627 21.9604 6.93094C21.9029 6.66562 21.7859 6.41684 21.6181 6.20344C21.4503 5.99005 21.2361 5.81762 20.9918 5.69922C20.7475 5.58082 20.4795 5.51954 20.208 5.52003H8.87315Z" fill="black"/>
<path d="M6.48687 9.59998C6.29104 9.59767 6.10191 9.52837 5.95095 9.40361C5.79999 9.27885 5.69631 9.10615 5.65716 8.91427L4.42973 3.58627C4.31638 3.10091 4.04167 2.66838 3.65054 2.35946C3.2594 2.05054 2.775 1.88351 2.27658 1.8857H1.15887C0.931542 1.8857 0.713524 1.79539 0.552779 1.63464C0.392033 1.4739 0.301727 1.25588 0.301727 1.02855C0.301727 0.801225 0.392033 0.583207 0.552779 0.422462C0.713524 0.261716 0.931542 0.171411 1.15887 0.171411H2.27658C3.16239 0.168316 4.02307 0.46568 4.71804 1.01493C5.41301 1.56418 5.9012 2.33286 6.10287 3.19541L7.32344 8.52341C7.34986 8.63285 7.35428 8.74645 7.33645 8.85761C7.31861 8.96878 7.27888 9.07529 7.21956 9.17098C7.16023 9.26666 7.08249 9.34962 6.99085 9.41502C6.89922 9.48042 6.7955 9.52698 6.68573 9.55198C6.6213 9.57487 6.55465 9.59096 6.48687 9.59998ZM10.3612 23.8286C9.81867 23.8286 9.28837 23.6677 8.83731 23.3663C8.38625 23.0649 8.03469 22.6365 7.82709 22.1353C7.61949 21.6341 7.56517 21.0827 7.671 20.5506C7.77684 20.0185 8.03807 19.5298 8.42166 19.1462C8.80526 18.7626 9.29399 18.5014 9.82605 18.3955C10.3581 18.2897 10.9096 18.344 11.4108 18.5516C11.912 18.7592 12.3404 19.1108 12.6418 19.5618C12.9431 20.0129 13.104 20.5432 13.104 21.0857C13.104 21.8131 12.815 22.5108 12.3006 23.0252C11.7863 23.5396 11.0886 23.8286 10.3612 23.8286ZM10.3612 20.0297C10.155 20.0297 9.9535 20.0908 9.78209 20.2054C9.61069 20.3199 9.4771 20.4827 9.39821 20.6731C9.31932 20.8636 9.29868 21.0731 9.3389 21.2753C9.37912 21.4775 9.47838 21.6632 9.62415 21.809C9.76991 21.9548 9.95563 22.054 10.1578 22.0942C10.36 22.1345 10.5696 22.1138 10.76 22.0349C10.9505 21.956 11.1133 21.8224 11.2278 21.651C11.3423 21.4796 11.4034 21.2781 11.4034 21.072C11.4034 20.7955 11.2936 20.5304 11.0982 20.335C10.9027 20.1395 10.6376 20.0297 10.3612 20.0297ZM19.8377 23.8286C19.2952 23.8286 18.7649 23.6677 18.3139 23.3663C17.8628 23.0649 17.5113 22.6365 17.3037 22.1353C17.0961 21.6341 17.0417 21.0827 17.1476 20.5506C17.2534 20.0185 17.5146 19.5298 17.8982 19.1462C18.2818 18.7626 18.7706 18.5014 19.3026 18.3955C19.8347 18.2897 20.3862 18.344 20.8874 18.5516C21.3886 18.7592 21.8169 19.1108 22.1183 19.5618C22.4197 20.0129 22.5806 20.5432 22.5806 21.0857C22.5806 21.8131 22.2916 22.5108 21.7772 23.0252C21.2628 23.5396 20.5652 23.8286 19.8377 23.8286ZM19.8377 20.0297C19.6319 20.031 19.431 20.0933 19.2605 20.2087C19.09 20.324 18.9575 20.4873 18.8797 20.6778C18.8018 20.8684 18.7822 21.0778 18.8232 21.2795C18.8642 21.4812 18.964 21.6663 19.11 21.8114C19.256 21.9565 19.4418 22.055 19.6438 22.0947C19.8457 22.1344 20.055 22.1133 20.245 22.0343C20.4351 21.9552 20.5975 21.8216 20.7117 21.6503C20.8259 21.4791 20.8869 21.2778 20.8869 21.072C20.8869 20.9345 20.8597 20.7984 20.8069 20.6715C20.7541 20.5446 20.6767 20.4294 20.5792 20.3325C20.4817 20.2357 20.3659 20.159 20.2387 20.1071C20.1115 20.0551 19.9752 20.0288 19.8377 20.0297Z" fill="black"/>
<path d="M19.8377 20.0297H8.41371C7.70626 20.0297 7.02779 19.7486 6.52755 19.2484C6.02731 18.7482 5.74628 18.0697 5.74628 17.3623C5.74628 16.6548 6.02731 15.9763 6.52755 15.4761C7.02779 14.9759 7.70626 14.6948 8.41371 14.6948H10.2308C10.4582 14.6948 10.6762 14.7851 10.8369 14.9459C10.9977 15.1066 11.088 15.3246 11.088 15.552C11.088 15.7793 10.9977 15.9973 10.8369 16.1581C10.6762 16.3188 10.4582 16.4091 10.2308 16.4091H8.41371C8.16092 16.4091 7.91848 16.5095 7.73973 16.6883C7.56098 16.867 7.46056 17.1095 7.46056 17.3623C7.46056 17.615 7.56098 17.8575 7.73973 18.0362C7.91848 18.215 8.16092 18.3154 8.41371 18.3154H19.8377C20.065 18.3154 20.2831 18.4057 20.4438 18.5664C20.6045 18.7272 20.6948 18.9452 20.6948 19.1725C20.6948 19.3999 20.6045 19.6179 20.4438 19.7786C20.2831 19.9394 20.065 20.0297 19.8377 20.0297Z" fill="black"/>
</g>
<defs>
<clipPath id="clip0_0_99">
<rect width="24" height="24" fill="white"/>
</clipPath>
</defs>
</svg>
