<svg width="24" height="21" viewBox="0 0 24 21" fill="none" xmlns="http://www.w3.org/2000/svg">
<path d="M0 14.1107C0 13.5896 0 13.0684 0 12.5473C0 12.2182 0.137139 12.0262 0.438846 11.889C1.15197 11.5873 1.48111 10.9565 1.59082 10.2434C1.70053 9.55766 1.59082 8.87197 1.15197 8.32341C0.959976 8.07656 0.685697 7.88456 0.411418 7.71999C0.137139 7.58285 0 7.39086 0 7.08915C0 6.43088 0 5.74519 0 5.08692C0 4.1818 0.548558 3.55096 1.42625 3.33153C1.56339 3.30411 1.64567 3.22182 1.6731 3.08468C1.8651 2.45384 2.08452 1.85043 2.27651 1.21959C2.60565 0.204755 3.48334 -0.234091 4.5256 0.122472C7.48781 1.1373 10.4774 2.17956 13.4397 3.19439C13.5768 3.24925 13.7414 3.27668 13.9059 3.27668C16.6213 3.27668 19.3641 3.30411 22.0794 3.27668C23.1217 3.27668 24.0268 4.01723 23.9994 5.19663C23.972 5.82747 23.9994 6.45831 23.9994 7.08915C23.9994 7.36343 23.9171 7.58286 23.6703 7.69257C22.9023 7.99427 22.5457 8.62511 22.4086 9.39309C22.2989 10.0788 22.4086 10.7096 22.7926 11.2856C22.9846 11.5873 23.2588 11.8067 23.588 11.9439C23.8623 12.0536 23.9994 12.2456 23.9994 12.5473C23.9994 13.5896 23.9994 14.6318 23.9994 15.6741C23.9994 16.5518 23.4508 17.21 22.5731 17.402C22.4909 17.4295 22.3811 17.5117 22.3537 17.6215C22.1343 18.2249 21.9423 18.8557 21.7503 19.4591C21.4212 20.474 20.5435 20.9128 19.5287 20.5562C16.539 19.5414 13.5768 18.5266 10.5872 17.5117C10.45 17.4569 10.2855 17.4295 10.1483 17.4295C7.40553 17.4295 4.69017 17.4295 1.94738 17.4295C0.767981 17.4295 0.027428 16.7163 0.027428 15.5369C1.0422e-07 15.0432 0 14.577 0 14.1107ZM4.90959 16.3323C4.90959 16.1404 4.90959 15.9758 4.90959 15.8112C4.93702 15.4547 5.15644 15.2352 5.45815 15.2352C5.75985 15.2352 5.97928 15.4547 6.00671 15.8112C6.00671 15.9758 6.00671 16.1404 6.00671 16.3323C6.08899 16.3323 6.14384 16.3598 6.1987 16.3598C11.5197 16.3598 16.8407 16.3598 22.1617 16.3598C22.6554 16.3598 22.8749 16.1129 22.8749 15.6467C22.8749 14.7415 22.8749 13.8638 22.8749 12.9587C22.8749 12.8764 22.7926 12.7393 22.7103 12.6844C20.7355 11.3953 20.7355 8.24112 22.7103 6.97944C22.7926 6.92459 22.8474 6.78745 22.8749 6.70516C22.9023 6.18403 22.8749 5.69033 22.8749 5.1692C22.8749 4.59322 22.6554 4.40122 22.0794 4.40122C16.8133 4.40122 11.5197 4.40122 6.25356 4.40122C6.17127 4.40122 6.08899 4.40122 5.97928 4.40122C5.97928 4.56579 5.97928 4.70293 5.97928 4.84007C5.97928 5.22406 5.75985 5.44348 5.43072 5.44348C5.10159 5.44348 4.88216 5.19663 4.88216 4.84007C4.88216 4.70293 4.88216 4.53836 4.88216 4.37379C3.78505 4.37379 2.74279 4.37379 1.70053 4.37379C1.34397 4.37379 1.09712 4.62064 1.09712 4.97721C1.09712 5.55319 1.09712 6.12918 1.09712 6.70516C1.09712 6.78745 1.15197 6.86973 1.20683 6.89716C2.19423 7.528 2.6605 8.43312 2.71536 9.55766C2.77022 10.8468 2.33137 11.9165 1.23425 12.657C1.15197 12.7119 1.09712 12.849 1.09712 12.9313C1.09712 13.809 1.09712 14.6592 1.09712 15.5369C1.09712 16.0855 1.31654 16.3049 1.8651 16.3049C2.77022 16.3049 3.64791 16.3049 4.55303 16.3049C4.66274 16.3323 4.77245 16.3323 4.90959 16.3323ZM10.2032 3.27668C10.2032 3.24925 10.2032 3.24925 10.2032 3.22182C9.35291 2.92012 8.53007 2.64584 7.67981 2.34413C6.50041 1.93271 5.34844 1.52129 4.16904 1.1373C3.78505 1.00016 3.51077 1.08245 3.42849 1.35673C3.18163 1.98757 2.98964 2.61841 2.77022 3.27668C5.26615 3.27668 7.73466 3.27668 10.2032 3.27668ZM13.8511 17.4295C13.9059 17.4569 13.9334 17.4843 13.9608 17.4843C15.963 18.17 17.9653 18.8557 19.9675 19.5414C20.2966 19.6511 20.5435 19.514 20.6806 19.1848C20.8726 18.6637 21.0372 18.1426 21.2018 17.6489C21.2292 17.594 21.2292 17.5117 21.2566 17.4569C18.7607 17.4295 16.3196 17.4295 13.8511 17.4295Z" fill="#0EAA4B"/>
<path d="M17.3345 7.85718C17.2796 7.93947 17.2248 8.07661 17.1425 8.18632C15.442 9.88685 13.714 11.5874 12.0135 13.2879C11.7392 13.5348 11.4101 13.5622 11.1906 13.3153C10.9712 13.0959 10.9712 12.7668 11.2455 12.5199C12.946 10.8194 14.6465 9.11887 16.3471 7.41834C16.5391 7.22634 16.7585 7.17149 17.0053 7.2812C17.2248 7.36348 17.3345 7.55548 17.3345 7.85718Z" fill="#0EAA4B"/>
<path d="M11.602 9.53026C10.642 9.53026 9.81916 8.70742 9.84658 7.74745C9.84658 6.78747 10.6694 5.99207 11.6294 5.99207C12.5894 5.99207 13.3848 6.78747 13.3848 7.74745C13.3574 8.73485 12.5619 9.53026 11.602 9.53026ZM11.602 7.08918C11.218 7.08918 10.9437 7.39089 10.9437 7.77488C10.9437 8.15887 11.2454 8.46057 11.6294 8.43315C11.986 8.43315 12.2877 8.13144 12.2877 7.74745C12.2602 7.39089 11.9585 7.08918 11.602 7.08918Z" fill="#0EAA4B"/>
<path d="M16.7859 11.1759C17.7733 11.1759 18.5687 11.9713 18.5413 12.9313C18.5413 13.8913 17.7459 14.6867 16.7859 14.6867C15.8259 14.6867 15.0031 13.8913 15.0031 12.9313C15.0305 11.9713 15.7985 11.1759 16.7859 11.1759ZM16.7859 13.617C17.1699 13.617 17.4716 13.3153 17.4716 12.9313C17.4716 12.5747 17.1699 12.273 16.8134 12.273C16.4294 12.273 16.1277 12.5747 16.1277 12.9313C16.1002 13.3153 16.4019 13.617 16.7859 13.617Z" fill="#0EAA4B"/>
<path d="M4.90954 7.36344C4.90954 7.17144 4.90954 6.97944 4.90954 6.78745C4.93697 6.45831 5.15639 6.26632 5.43067 6.23889C5.73237 6.23889 5.97923 6.43089 5.97923 6.78745C6.00665 7.17144 6.00665 7.55543 5.97923 7.96685C5.97923 8.29598 5.73237 8.51541 5.43067 8.51541C5.12896 8.51541 4.90954 8.29598 4.88211 7.96685C4.90954 7.74743 4.90954 7.55543 4.90954 7.36344Z" fill="#0EAA4B"/>
<path d="M4.90954 10.3256C4.90954 10.1336 4.90954 9.9416 4.90954 9.74961C4.93697 9.42047 5.15639 9.22848 5.43067 9.20105C5.73237 9.20105 5.97923 9.39304 5.97923 9.74961C6.00665 10.1336 6.00665 10.545 5.97923 10.9564C5.9518 11.2856 5.73237 11.4776 5.43067 11.4776C5.12896 11.4776 4.90954 11.2581 4.88211 10.9564C4.90954 10.737 4.90954 10.5176 4.90954 10.3256Z" fill="#0EAA4B"/>
<path d="M6.00675 13.2879C6.00675 13.4799 6.00675 13.6718 6.00675 13.8364C5.97933 14.1656 5.7599 14.385 5.4582 14.385C5.15649 14.385 4.93707 14.1656 4.90964 13.8364C4.88221 13.4524 4.88221 13.0684 4.90964 12.657C4.90964 12.3279 5.15649 12.1085 5.4582 12.1085C5.7599 12.1085 5.97933 12.3279 5.97933 12.657C6.03418 12.9039 6.00675 13.0959 6.00675 13.2879Z" fill="#0EAA4B"/>
</svg>
