<svg width="15" height="19" viewBox="0 0 15 19" fill="none" xmlns="http://www.w3.org/2000/svg">
<path d="M0.857232 10.5122C0.857232 8.98128 0.857232 7.45032 0.857232 5.91936C0.857232 5.42946 1.1226 5.10285 1.55127 5.0212C2.04117 4.93955 2.49025 5.28657 2.51067 5.77647C2.51067 5.83771 2.51067 5.91936 2.51067 5.9806C2.51067 8.98128 2.51067 11.9615 2.51067 14.9622C2.51067 15.9625 3.18429 16.6361 4.18452 16.6361C6.3891 16.6361 8.61409 16.6361 10.8187 16.6361C11.8189 16.6361 12.4925 15.9625 12.4925 14.9622C12.4925 11.9411 12.4925 8.92004 12.4925 5.91936C12.4925 5.44987 12.7375 5.12326 13.1457 5.04161C13.6152 4.93955 14.0439 5.24574 14.1255 5.71524C14.146 5.79689 14.146 5.89895 14.146 5.9806C14.146 8.98128 14.146 11.982 14.146 14.9826C14.146 16.6361 13.0437 17.9425 11.4311 18.2487C11.2473 18.2895 11.0432 18.2895 10.8391 18.2895C8.59368 18.2895 6.36868 18.2895 4.12328 18.2895C2.26571 18.2895 0.816406 16.8402 0.816406 15.0031C0.857232 13.5129 0.857232 12.0228 0.857232 10.5122Z" fill="#0D7D3F"/>
<path d="M10.8392 2.51077C11.0637 2.51077 11.2474 2.51077 11.4312 2.51077C12.3293 2.51077 13.2275 2.51077 14.1256 2.51077C14.738 2.51077 15.1259 3.02109 14.9626 3.57224C14.8605 3.89884 14.5747 4.12338 14.2277 4.16421C14.1869 4.16421 14.1461 4.16421 14.0848 4.16421C9.69607 4.16421 5.30732 4.16421 0.898163 4.16421C0.36743 4.16421 0 3.81719 0 3.32728C0 2.85779 0.36743 2.51077 0.898163 2.51077C1.89839 2.51077 2.89862 2.51077 3.89884 2.51077C3.98049 2.51077 4.06214 2.51077 4.16421 2.51077C4.16421 2.42912 4.16421 2.36788 4.16421 2.28623C4.16421 1.81674 4.16421 1.34724 4.16421 0.87775C4.16421 0.347017 4.51123 0 5.02154 0C6.65457 0 8.28759 0 9.94103 0C10.4718 0 10.7984 0.347017 10.8188 0.87775C10.8392 1.42889 10.8392 1.95963 10.8392 2.51077ZM9.16534 2.51077C9.16534 2.24541 9.16534 1.98004 9.16534 1.69426C8.06305 1.69426 6.96076 1.69426 5.85847 1.69426C5.85847 1.95963 5.85847 2.22499 5.85847 2.51077C6.96076 2.51077 8.04264 2.51077 9.16534 2.51077Z" fill="#0D7D3F"/>
<path d="M5.02158 10.4107C5.02158 9.45128 5.02158 8.47146 5.02158 7.51206C5.02158 7.10381 5.28694 6.7772 5.6952 6.69555C6.06263 6.6139 6.45047 6.81803 6.61377 7.16504C6.67501 7.28752 6.69542 7.45082 6.69542 7.5733C6.69542 9.47169 6.69542 11.3701 6.69542 13.2481C6.69542 13.7788 6.32799 14.1462 5.8585 14.1462C5.38901 14.1462 5.04199 13.7584 5.04199 13.2481C5.02158 12.3091 5.02158 11.3497 5.02158 10.4107Z" fill="#0D7D3F"/>
<path d="M10.0021 10.4309C10.0021 11.3903 10.0021 12.3701 10.0021 13.3295C10.0021 13.7173 9.75712 14.0235 9.36927 14.1256C9.02225 14.2276 8.63441 14.0847 8.47111 13.7581C8.38946 13.6152 8.34863 13.4315 8.34863 13.2886C8.34863 11.3903 8.34863 9.47145 8.34863 7.57306C8.34863 7.06274 8.71606 6.69531 9.18556 6.69531C9.65505 6.69531 10.0021 7.06274 10.0021 7.59347C10.0021 8.51205 10.0021 9.47145 10.0021 10.4309Z" fill="#0D7D3F"/>
</svg>
