<svg width="24" height="24" viewBox="0 0 24 24" fill="none" xmlns="http://www.w3.org/2000/svg">
<path d="M12.504 1.224C12.936 1.32 13.392 1.344 13.824 1.488C16.392 2.28 18.048 3.96 18.624 6.6C18.936 8.04 18.672 9.432 18.096 10.776C17.688 11.712 17.136 12.576 16.536 13.416C15.216 15.288 13.896 17.112 12.6 18.96C12.24 19.488 11.784 19.488 11.4 18.96C9.984 16.968 8.568 14.976 7.176 12.984C6.408 11.88 5.784 10.728 5.448 9.408C4.728 6.504 6.096 3.456 8.736 2.064C9.552 1.632 10.44 1.344 11.376 1.272C11.424 1.272 11.448 1.248 11.496 1.248C11.832 1.224 12.168 1.224 12.504 1.224ZM12 17.616C12.048 17.544 12.096 17.472 12.144 17.424C13.152 16.008 14.136 14.592 15.144 13.2C15.792 12.288 16.44 11.4 16.896 10.368C17.472 9.072 17.664 7.728 17.232 6.336C16.464 3.864 14.016 2.28 11.448 2.52C8.304 2.832 5.64 5.904 6.816 9.576C7.152 10.608 7.68 11.496 8.28 12.36C9.48 14.064 10.704 15.768 11.904 17.472C11.928 17.52 11.952 17.544 12 17.616Z" fill="#0EAA4B"/>
<path d="M11.832 22.776C9.912 21.552 7.968 20.352 6.048 19.128C5.592 18.84 5.616 18.312 6.048 18.024C6.624 17.664 7.2 17.304 7.776 16.944C8.112 16.728 8.496 16.824 8.688 17.112C8.88 17.424 8.784 17.784 8.448 18C8.16 18.192 7.848 18.384 7.536 18.576C7.584 18.624 7.632 18.648 7.68 18.672C9.072 19.536 10.44 20.424 11.832 21.312C11.952 21.384 12.048 21.408 12.192 21.312C13.56 20.424 14.952 19.56 16.32 18.696C16.368 18.672 16.392 18.648 16.464 18.6C16.392 18.552 16.344 18.504 16.296 18.48C16.032 18.312 15.768 18.168 15.528 17.976C15.24 17.784 15.168 17.424 15.336 17.136C15.504 16.848 15.864 16.728 16.152 16.896C16.8 17.28 17.424 17.688 18.048 18.096C18.408 18.336 18.36 18.864 17.976 19.128C17.616 19.368 17.256 19.584 16.92 19.8C15.432 20.736 13.968 21.672 12.48 22.608C12.384 22.68 12.288 22.728 12.168 22.8C12.048 22.776 11.928 22.776 11.832 22.776Z" fill="#0EAA4B"/>
<path d="M12 4.48804C13.944 4.48804 15.528 6.07204 15.528 8.01604C15.528 9.96004 13.944 11.544 12 11.544C10.056 11.544 8.47202 9.96004 8.47202 8.01604C8.47202 6.07204 10.056 4.48804 12 4.48804ZM11.976 10.272C13.224 10.272 14.256 9.26404 14.256 8.01604C14.256 6.76804 13.248 5.76004 12 5.73604C10.752 5.71204 9.72002 6.74404 9.72002 7.99204C9.72002 9.26404 10.728 10.272 11.976 10.272Z" fill="#0EAA4B"/>
</svg>
