<svg width="24" height="24" viewBox="0 0 24 24" fill="none" xmlns="http://www.w3.org/2000/svg">
<path d="M5.23998 10.48C4.20371 10.48 3.19071 10.1727 2.32905 9.59706C1.46739 9.02139 0.795762 8.20316 0.399089 7.24581C0.00241566 6.28847 -0.101495 5.235 0.100497 4.21861C0.302489 3.20221 0.801312 2.26853 1.5339 1.53561C2.26649 0.802688 3.19994 0.303438 4.21624 0.10098C5.23254 -0.101477 6.28606 0.00194993 7.24358 0.398185C8.20111 0.79442 9.01965 1.46567 9.59571 2.32707C10.1718 3.18846 10.4795 4.20133 10.48 5.2376C10.4787 6.62716 9.92631 7.95949 8.94396 8.94228C7.96162 9.92508 6.62955 10.4781 5.23998 10.48ZM5.23998 0.748402C4.35174 0.748481 3.48346 1.01197 2.74497 1.50554C2.00648 1.99912 1.43095 2.70061 1.09116 3.52129C0.751372 4.34198 0.662589 5.245 0.836042 6.11614C1.0095 6.98729 1.43739 7.78743 2.06562 8.41538C2.69384 9.04332 3.49418 9.47087 4.3654 9.64393C5.23662 9.817 6.1396 9.72781 6.96014 9.38766C7.78067 9.0475 8.48191 8.47166 8.97515 7.73295C9.4684 6.99424 9.7315 6.12585 9.73118 5.2376C9.72938 4.0472 9.25556 2.90609 8.41363 2.06454C7.5717 1.22298 6.43039 0.749671 5.23998 0.748402Z" fill="#0EAA4B"/>
<path d="M1.89001 10.3379C1.98952 10.3379 2.08496 10.3774 2.15532 10.4478C2.22569 10.5182 2.26521 10.6136 2.26521 10.7131V19.9611H3.41401C3.68731 19.5534 4.08488 19.2448 4.54761 19.0811V16.0411C4.54756 15.9918 4.55723 15.943 4.57607 15.8975C4.5949 15.8519 4.62254 15.8105 4.65739 15.7757C4.69224 15.7408 4.73362 15.7132 4.77917 15.6944C4.82471 15.6755 4.87353 15.6659 4.92281 15.6659H6.56961V11.7459C6.56956 11.6967 6.57921 11.6479 6.59803 11.6024C6.61684 11.5568 6.64444 11.5155 6.67924 11.4806C6.71405 11.4458 6.75539 11.4181 6.80089 11.3993C6.84639 11.3804 6.89516 11.3707 6.94441 11.3707H10.9884C11.0377 11.3707 11.0864 11.3804 11.1319 11.3993C11.1774 11.4181 11.2188 11.4458 11.2536 11.4806C11.2884 11.5155 11.316 11.5568 11.3348 11.6024C11.3536 11.6479 11.3633 11.6967 11.3632 11.7459V15.6659H13.0104C13.0597 15.6659 13.1084 15.6756 13.1539 15.6945C13.1994 15.7133 13.2408 15.741 13.2756 15.7758C13.3104 15.8107 13.338 15.852 13.3568 15.8976C13.3756 15.9431 13.3853 15.9919 13.3852 16.0411V19.9611H15.668V9.33832H10.388C10.2907 9.33514 10.1984 9.29424 10.1307 9.22426C10.0629 9.15428 10.0251 9.06071 10.0251 8.96332C10.0251 8.86593 10.0629 8.77236 10.1307 8.70238C10.1984 8.6324 10.2907 8.5915 10.388 8.58832H16.0432C16.1426 8.58832 16.2379 8.62781 16.3082 8.69809C16.3785 8.76838 16.418 8.86371 16.418 8.96312V11.1175C16.4276 11.1175 16.436 11.1147 16.4456 11.1147H18.0708C19.6429 11.1165 21.1501 11.7419 22.2617 12.8536C23.3732 13.9653 23.9984 15.4726 24 17.0447V19.9339C23.9998 20.14 23.9178 20.3377 23.772 20.4834C23.6262 20.6291 23.4285 20.711 23.2224 20.7111H22.1712C22.2873 21.2061 22.2328 21.7259 22.0166 22.1861C21.8004 22.6463 21.4351 23.02 20.98 23.2467H23.6248C23.7243 23.2467 23.8197 23.2862 23.8901 23.3566C23.9605 23.427 24 23.5224 24 23.6219C24 23.7214 23.9605 23.8169 23.8901 23.8872C23.8197 23.9576 23.7243 23.9971 23.6248 23.9971H1.89001C1.7905 23.9971 1.69507 23.9576 1.62471 23.8872C1.55434 23.8169 1.51481 23.7214 1.51481 23.6219C1.51481 23.5224 1.55434 23.427 1.62471 23.3566C1.69507 23.2862 1.7905 23.2467 1.89001 23.2467H4.28001C3.82489 23.02 3.45965 22.6463 3.24345 22.1861C3.02725 21.7259 2.97276 21.2061 3.08881 20.7111H1.88881C1.83956 20.7112 1.79078 20.7015 1.74526 20.6827C1.69974 20.6639 1.65838 20.6363 1.62353 20.6015C1.58869 20.5667 1.56104 20.5253 1.54218 20.4798C1.52332 20.4343 1.51361 20.3856 1.51361 20.3363V10.7131C1.51361 10.6637 1.52336 10.6149 1.54229 10.5693C1.56122 10.5237 1.58896 10.4822 1.62393 10.4474C1.6589 10.4125 1.7004 10.3849 1.74606 10.3661C1.79172 10.3473 1.84064 10.3378 1.89001 10.3379ZM5.29801 18.9507H5.30201C5.62118 18.9511 5.93665 19.0191 6.22771 19.1501C6.51876 19.281 6.77882 19.4721 6.99081 19.7107H8.59081V16.4147H5.29761L5.29801 18.9507ZM10.6132 12.1175H7.32001V15.4107H10.6132V12.1175ZM12.6352 16.4135H9.34161V19.7075H12.6352V16.4135ZM23.2224 19.9611C23.226 19.9612 23.2296 19.9605 23.2329 19.9592C23.2363 19.9578 23.2393 19.9558 23.2419 19.9533C23.2445 19.9508 23.2465 19.9477 23.2479 19.9444C23.2493 19.9411 23.25 19.9375 23.25 19.9339V17.0447C23.2484 15.6716 22.7022 14.3552 21.7313 13.3844C20.7603 12.4135 19.4439 11.8674 18.0708 11.8659H16.4456C16.4384 11.8659 16.4314 11.8688 16.4262 11.8739C16.4211 11.8789 16.4181 11.8859 16.418 11.8931V19.9331C16.418 19.9367 16.4187 19.9403 16.4201 19.9436C16.4215 19.9469 16.4235 19.95 16.4261 19.9525C16.4287 19.955 16.4317 19.957 16.4351 19.9584C16.4384 19.9597 16.442 19.9604 16.4456 19.9603H18.0728C18.2799 19.6494 18.5605 19.3945 18.8898 19.2182C19.2191 19.0419 19.5869 18.9496 19.9604 18.9496C20.3339 18.9496 20.7017 19.0419 21.031 19.2182C21.3603 19.3945 21.6409 19.6494 21.848 19.9603L23.2224 19.9611ZM21.48 21.2207C21.4799 21.0143 21.4374 20.8101 21.3552 20.6207C21.2841 20.561 21.2382 20.4765 21.2268 20.3843C21.0254 20.0808 20.7215 19.86 20.3707 19.762C20.0199 19.664 19.6456 19.6954 19.316 19.8505C18.9865 20.0057 18.7237 20.2742 18.5757 20.607C18.4277 20.9398 18.4044 21.3147 18.5099 21.6633C18.6154 22.0119 18.8428 22.3109 19.1506 22.5058C19.4583 22.7006 19.8258 22.7783 20.1861 22.7246C20.5463 22.6709 20.8753 22.4895 21.1128 22.2134C21.3504 21.9373 21.4807 21.5849 21.48 21.2207ZM18.9396 23.2467C18.4843 23.0203 18.1188 22.6466 17.9027 22.1863C17.6865 21.726 17.6323 21.2061 17.7488 20.7111H16.4448C16.3632 20.7105 16.2822 20.697 16.2048 20.6711C16.1541 20.6968 16.0981 20.7105 16.0412 20.7111H7.51281C7.62874 21.2063 7.57401 21.7262 7.35751 22.1864C7.14101 22.6466 6.77542 23.0203 6.32001 23.2467H18.9396ZM5.29961 22.7411C5.60024 22.7411 5.89412 22.652 6.14408 22.4849C6.39404 22.3179 6.58886 22.0805 6.70391 21.8028C6.81895 21.525 6.84905 21.2194 6.79041 20.9246C6.73175 20.6297 6.58699 20.3589 6.37441 20.1463C6.16184 19.9337 5.891 19.789 5.59615 19.7303C5.3013 19.6717 4.99568 19.7018 4.71793 19.8168C4.44019 19.9319 4.2028 20.1267 4.03578 20.3766C3.86876 20.6266 3.77961 20.9205 3.77961 21.2211C3.77961 21.4209 3.81901 21.6188 3.89555 21.8033C3.97208 21.9879 4.08426 22.1556 4.22566 22.2968C4.36706 22.4379 4.5349 22.5498 4.7196 22.6261C4.90429 22.7023 5.1022 22.7414 5.30201 22.7411H5.29961Z" fill="#0EAA4B"/>
<path d="M18.1912 17.1732C18.1419 17.1732 18.0931 17.1636 18.0475 17.1447C18.0019 17.1258 17.9605 17.0982 17.9257 17.0633C17.8908 17.0284 17.8632 16.987 17.8444 16.9414C17.8255 16.8958 17.8159 16.8469 17.816 16.7976V13.5128C17.816 13.4635 17.8257 13.4147 17.8446 13.3692C17.8634 13.3237 17.8911 13.2823 17.9259 13.2475C17.9608 13.2127 18.0021 13.185 18.0476 13.1662C18.0932 13.1473 18.1419 13.1376 18.1912 13.1376C19.1282 13.1387 20.0265 13.5113 20.6891 14.1738C21.3517 14.8363 21.7245 15.7346 21.7256 16.6716C21.7182 16.7134 21.7182 16.7562 21.7256 16.798C21.7257 16.8473 21.716 16.8961 21.6972 16.9416C21.6783 16.9872 21.6507 17.0286 21.6158 17.0634C21.581 17.0983 21.5396 17.1259 21.4941 17.1447C21.4485 17.1636 21.3997 17.1732 21.3504 17.1732H18.1912ZM18.5664 13.9132V16.4232H20.9644C20.9072 15.7954 20.639 15.2055 20.2035 14.7497C19.768 14.2939 19.191 13.999 18.5664 13.9132ZM5.24003 5.61401H2.53683C2.43732 5.61401 2.34189 5.57448 2.27152 5.50411C2.20116 5.43375 2.16163 5.33832 2.16163 5.23881C2.16163 5.1393 2.20116 5.04386 2.27152 4.9735C2.34189 4.90314 2.43732 4.86361 2.53683 4.86361H4.86483V2.53601C4.86319 2.48573 4.87167 2.43564 4.88978 2.38871C4.90788 2.34178 4.93524 2.29897 4.97023 2.26282C5.00521 2.22667 5.04711 2.19793 5.09342 2.1783C5.13974 2.15867 5.18953 2.14856 5.23983 2.14856C5.29013 2.14856 5.33992 2.15867 5.38624 2.1783C5.43255 2.19793 5.47445 2.22667 5.50943 2.26282C5.54441 2.29897 5.57177 2.34178 5.58988 2.38871C5.60799 2.43564 5.61647 2.48573 5.61483 2.53601V5.23761C5.61504 5.28696 5.6055 5.33587 5.58676 5.38153C5.56802 5.42718 5.54044 5.46869 5.50562 5.50366C5.47079 5.53864 5.42941 5.56639 5.38383 5.58532C5.33825 5.60426 5.28938 5.61401 5.24003 5.61401Z" fill="#0EAA4B"/>
</svg>
