<svg width="24" height="24" viewBox="0 0 24 24" fill="none" xmlns="http://www.w3.org/2000/svg">
<path d="M12.7404 24C12.2298 24 11.7447 24 11.234 24C11.0809 23.9745 10.9277 23.9489 10.7745 23.9489C8.4 23.6936 6.28085 22.8255 4.44255 21.3191C2.14468 19.4043 0.714894 17.0043 0.178723 14.0681C0.102128 13.634 0.0510638 13.2 0 12.7404C0 12.2298 0 11.7447 0 11.234C0.0255319 11.183 0.0255319 11.1064 0.0510638 11.0553C0.204255 9.01277 0.842553 7.1234 1.99149 5.41277C3.90638 2.57872 6.5617 0.791489 9.95745 0.178723C10.3915 0.102128 10.8255 0.0510638 11.2596 0C11.7702 0 12.2553 0 12.766 0C13.1745 0.0510638 13.583 0.102128 13.9915 0.153191C16.2128 0.53617 18.2043 1.48085 19.9149 2.98723C22.0085 4.85106 23.3362 7.14894 23.8213 9.93192C23.8979 10.366 23.9489 10.8 24 11.2596C24 11.7702 24 12.2553 24 12.766C23.9745 12.817 23.9745 12.8936 23.9489 12.9447C23.8468 13.5574 23.7957 14.1957 23.6426 14.783C22.5702 19.4043 18.6894 23.0298 14.0426 23.8213C13.634 23.8979 13.2 23.9489 12.7404 24ZM22.5957 12C22.5957 6.15319 17.8468 1.40426 12 1.40426C6.15319 1.40426 1.40426 6.15319 1.40426 11.9745C1.40426 17.8213 6.15319 22.5702 12 22.5702C17.8213 22.5957 22.5957 17.8468 22.5957 12Z" fill="#0EAA4B"/>
<path d="M11.2852 9.85524C11.2852 9.19141 11.2852 8.50205 11.2852 7.83822C11.2852 7.37865 11.566 7.07227 11.9745 7.07227C12.383 7.07227 12.6894 7.37865 12.6894 7.83822C12.6894 9.06376 12.6894 10.2638 12.6894 11.4893C12.6894 11.6169 12.7405 11.7446 12.8426 11.8212C14.0937 13.0978 15.3703 14.3489 16.6213 15.6255C16.8256 15.8297 16.9277 16.034 16.9022 16.3148C16.8256 16.8255 16.2383 17.0808 15.8043 16.7744C15.7277 16.7233 15.6766 16.6723 15.6256 16.5957C14.2979 15.2935 12.9703 13.9404 11.6171 12.6127C11.3873 12.3829 11.2852 12.1531 11.2852 11.8212C11.3107 11.1829 11.2852 10.5191 11.2852 9.85524Z" fill="#0EAA4B"/>
<path d="M12.7146 4.26363C12.7146 4.49342 12.7146 4.7232 12.7146 4.95299C12.7146 5.3615 12.4083 5.64235 12.0253 5.66789C11.6423 5.66789 11.3104 5.3615 11.3104 4.95299C11.3104 4.49342 11.3104 4.03384 11.3104 3.57427C11.3104 3.16576 11.6168 2.85938 12.0253 2.85938C12.4083 2.85938 12.7146 3.16576 12.7146 3.57427C12.7146 3.80406 12.7146 4.03384 12.7146 4.26363Z" fill="#0EAA4B"/>
<path d="M4.23839 12.7147C4.00861 12.7147 3.77882 12.7147 3.54903 12.7147C3.14052 12.7147 2.83414 12.3828 2.83414 11.9998C2.83414 11.6168 3.14052 11.3104 3.54903 11.3104C4.0086 11.3104 4.49371 11.3104 4.95329 11.3104C5.3618 11.3104 5.64265 11.6168 5.64265 11.9998C5.64265 12.3828 5.33626 12.6891 4.95329 12.7147C4.7235 12.7147 4.49371 12.7147 4.23839 12.7147Z" fill="#0EAA4B"/>
<path d="M19.7617 11.2852C19.9915 11.2852 20.2213 11.2852 20.451 11.2852C20.8595 11.2852 21.1404 11.5915 21.1659 11.9745C21.1659 12.3575 20.8595 12.6639 20.4766 12.6894C19.9915 12.6894 19.5319 12.6894 19.0468 12.6894C18.6638 12.6894 18.3574 12.3575 18.3574 11.9745C18.3574 11.5915 18.6638 11.2852 19.0723 11.2852C19.2766 11.2852 19.5064 11.2852 19.7617 11.2852Z" fill="#0EAA4B"/>
<path d="M11.2852 19.736C11.2852 19.5062 11.2852 19.2764 11.2852 19.0466C11.2852 18.6381 11.5915 18.3317 11.9745 18.3317C12.3575 18.3317 12.6894 18.6381 12.6894 19.0466C12.6894 19.5062 12.6894 19.9658 12.6894 20.4253C12.6894 20.8339 12.383 21.1402 11.9745 21.1402C11.5915 21.1402 11.2852 20.8339 11.2852 20.4253C11.2852 20.1956 11.2852 19.9658 11.2852 19.736Z" fill="#0EAA4B"/>
<path d="M18.6642 17.9748C18.6642 18.3578 18.3578 18.6641 17.9748 18.6641C17.5918 18.6641 17.2599 18.3578 17.2599 17.9748C17.2599 17.5918 17.5918 17.2599 17.9748 17.2599C18.3578 17.2599 18.6642 17.5663 18.6642 17.9748Z" fill="#0EAA4B"/>
<path d="M5.33609 6.02542C5.33609 5.64244 5.64247 5.33606 6.05098 5.33606C6.43396 5.33606 6.76588 5.64244 6.74035 6.02542C6.74035 6.4084 6.40843 6.74031 6.02545 6.71478C5.64247 6.74031 5.33609 6.4084 5.33609 6.02542Z" fill="#0EAA4B"/>
<path d="M17.9493 5.33606C18.3323 5.33606 18.6642 5.64244 18.6642 6.02542C18.6642 6.4084 18.3578 6.74031 17.9748 6.74031C17.5918 6.74031 17.2599 6.43393 17.2599 6.05095C17.2599 5.66797 17.5663 5.33606 17.9493 5.33606Z" fill="#0EAA4B"/>
<path d="M5.33609 17.9748C5.33609 17.5918 5.64247 17.2599 6.02545 17.2599C6.40843 17.2599 6.74035 17.5663 6.74035 17.9493C6.74035 18.3322 6.43396 18.6641 6.05098 18.6641C5.64247 18.6641 5.33609 18.3578 5.33609 17.9748Z" fill="#0EAA4B"/>
</svg>
