<svg width="24" height="24" viewBox="0 0 24 24" fill="none" xmlns="http://www.w3.org/2000/svg">
<path d="M24 13.2813C24 14.5488 24 15.8439 24 17.1114C23.9724 17.1665 23.9449 17.2216 23.9173 17.3042C23.7796 17.7451 23.504 18.0758 23.0907 18.2687C22.9529 18.3513 22.8978 18.4064 22.8978 18.5718C22.8978 19.5637 22.8978 20.5557 22.8978 21.5752C22.8978 21.7956 22.8703 22.0436 22.8152 22.2365C22.5396 23.2836 21.713 23.9173 20.5832 23.9173C14.4937 23.9173 8.40413 23.9173 2.31458 23.9173C2.09414 23.9173 1.87371 23.8898 1.65327 23.8347C0.6062 23.5591 0 22.7325 0 21.6303C0 17.3594 0 13.0608 0 8.7899C0 8.56946 0.0275545 8.34902 0.0826635 8.15614C0.358209 7.13662 1.15729 6.53043 2.25947 6.53043C2.78301 6.53043 3.30654 6.53043 3.83008 6.53043C3.96785 6.53043 4.13318 6.47532 4.27095 6.42021C6.69575 5.01493 9.12055 3.58209 11.5729 2.17681C12.8955 1.43284 14.1355 0.523536 15.5683 0C15.7612 0 15.9541 0 16.1194 0C17.0563 0.137773 17.6073 0.771527 18.0482 1.57061C18.93 3.16877 19.8668 4.76693 20.7761 6.3651C20.8588 6.50287 20.9414 6.58553 21.1068 6.61309C21.4925 6.6682 21.7956 6.83352 22.0987 7.05396C22.6498 7.52239 22.8978 8.12859 22.8978 8.84501C22.8978 9.86452 22.8978 10.884 22.8978 11.876C22.8978 12.0138 22.9529 12.0964 23.0631 12.1516C23.2836 12.3169 23.504 12.4822 23.6969 12.7026C23.8347 12.8404 23.9173 13.0884 24 13.2813ZM21.7956 18.4615C21.6579 18.4615 21.5201 18.4615 21.3823 18.4615C20.3352 18.4615 19.2606 18.4891 18.2135 18.434C16.4501 18.3238 15.0448 16.5603 15.2928 14.8243C15.5408 13.116 16.8909 11.9311 18.6269 11.9311C19.5913 11.9311 20.5832 11.9311 21.5476 11.9311C21.6303 11.9311 21.713 11.9311 21.7956 11.9311C21.7956 10.7738 21.7956 9.67164 21.7956 8.54191C21.7956 8.4868 21.7681 8.43169 21.7681 8.34902C21.6303 7.82549 21.217 7.54994 20.5832 7.54994C14.5212 7.54994 8.43169 7.54994 2.36969 7.54994C1.5155 7.54994 1.10218 7.96326 1.10218 8.81745C1.10218 13.0609 1.10218 17.2767 1.10218 21.5201C1.10218 22.3743 1.54305 22.8152 2.36969 22.8152C8.43169 22.8152 14.4661 22.8152 20.5281 22.8152C21.3548 22.8152 21.7956 22.4018 21.7956 21.5752C21.7956 20.6108 21.7956 19.6739 21.7956 18.7095C21.8232 18.6544 21.8232 18.5718 21.7956 18.4615ZM20.3352 17.3594C20.969 17.3594 21.5752 17.3594 22.209 17.3594C22.7049 17.3594 22.8978 17.1665 22.8978 16.6705C22.8978 15.6785 22.8978 14.6866 22.8978 13.6946C22.8978 13.1986 22.6774 13.0057 22.209 13.0057C21.0241 13.0057 19.8393 12.9782 18.682 13.0057C18.3513 13.0057 17.9931 13.0608 17.69 13.1986C16.7532 13.6119 16.2572 14.6039 16.4225 15.6234C16.5878 16.5603 17.442 17.3042 18.4615 17.3594C19.0677 17.3869 19.7015 17.3594 20.3352 17.3594ZM6.33754 6.42021C6.33754 6.44776 6.33754 6.44776 6.33754 6.47532C6.94374 6.47532 7.54994 6.47532 8.1837 6.47532C8.32147 6.47532 8.45924 6.44776 8.56946 6.3651C11.2698 4.79449 13.9426 3.25144 16.6429 1.68083C16.698 1.65327 16.7807 1.59816 16.8358 1.57061C16.4776 0.991963 15.899 0.881745 15.2928 1.23995C13.0609 2.53502 10.8289 3.83008 8.59701 5.1527C7.82549 5.56602 7.08152 6.00689 6.33754 6.42021ZM10.6636 6.44776C10.6636 6.47532 10.6912 6.47532 10.6912 6.50287C11.2974 6.50287 11.9036 6.50287 12.4822 6.50287C12.62 6.50287 12.7853 6.44776 12.9231 6.39265C14.5212 5.48335 16.1194 4.5465 17.7176 3.60964C17.7727 3.58209 17.8553 3.52698 17.9104 3.47187C17.7176 3.16877 17.5522 2.86567 17.3869 2.53502C15.1274 3.83008 12.8955 5.12514 10.6636 6.44776ZM18.4615 4.40873C17.2767 5.09759 16.1194 5.7589 14.9346 6.47532C16.5327 6.47532 18.0758 6.47532 19.6464 6.47532C19.2331 5.7589 18.8473 5.09759 18.4615 4.40873Z" fill="#0EAA4B"/>
<path d="M18.5442 16.2848C17.938 16.2848 17.4695 15.7888 17.4695 15.1826C17.4695 14.5764 17.9655 14.108 18.5717 14.108C19.1779 14.108 19.6464 14.604 19.6464 15.2102C19.6464 15.8164 19.1504 16.2848 18.5442 16.2848Z" fill="#0EAA4B"/>
</svg>
