<svg width="248" height="241" viewBox="0 0 248 241" fill="none" xmlns="http://www.w3.org/2000/svg">
<path d="M204.555 50.8535C212.464 51.6225 229.007 49.074 231.907 32.7285C234.807 16.3829 242.563 11.8571 246.078 11.6375" stroke="#F3603F" stroke-width="3" stroke-linecap="round"/>
<circle cx="134.319" cy="117.527" r="79.0761" fill="#53B175"/>
<g filter="url(#filter0_d_6_369)">
<circle cx="134.319" cy="117.527" r="68.1416" stroke="white" stroke-opacity="0.7" stroke-width="2"/>
</g>
<path d="M169.46 100.227C169.46 102.38 168.615 104.459 167.079 105.944L131.362 140.543C129.749 142.028 127.598 142.919 125.371 142.919C123.143 142.919 120.993 142.028 119.456 140.543L101.56 123.244C100.023 121.759 99.1786 119.68 99.1786 117.527C99.1786 115.374 100.1 113.369 101.637 111.81C103.25 110.325 105.323 109.508 107.551 109.434C109.778 109.434 111.852 110.251 113.465 111.736L125.371 123.244L155.173 94.4361C156.786 92.9511 158.86 92.1344 161.088 92.1344C163.315 92.2086 165.389 93.0254 167.002 94.5845C168.538 96.0695 169.46 98.0741 169.46 100.227Z" fill="white"/>
<path d="M193.526 196.603C200.908 198.736 215.18 206.839 213.212 222.193" stroke="#F7B23B" stroke-width="3" stroke-linecap="round" stroke-linejoin="round"/>
<path d="M2 174.966C9.13904 179.226 24.5297 182.281 28.9801 160.424M28.9801 160.424C29.6291 154.401 28.9802 142.488 21.1922 143.017C19.7087 148.819 19.1894 160.424 28.9801 160.424ZM28.9801 160.424C32.2252 161.379 39.7722 160.468 44 149.187" stroke="#6E89FA" stroke-width="3" stroke-linecap="round" stroke-linejoin="round"/>
<circle cx="156.771" cy="233.423" r="7.57962" fill="#637BFE"/>
<circle cx="228.425" cy="113.396" r="7.07962" stroke="#C05EFD"/>
<circle cx="108.106" cy="8.99576" r="8.30033" fill="#53B175"/>
<circle cx="131.673" cy="23.0056" r="4.38348" fill="#F3603F"/>
<circle cx="35.0588" cy="87.3808" r="7.18199" stroke="#F7B23B"/>
<circle cx="52.7037" cy="208.512" r="7.94695" stroke="#53B175"/>
<circle cx="4.03543" cy="4.03543" r="4.03543" transform="matrix(-1 0 0 1 137.239 220.695)" fill="#53B175"/>
<defs>
<filter id="filter0_d_6_369" x="61.1776" y="47.3854" width="146.283" height="146.283" filterUnits="userSpaceOnUse" color-interpolation-filters="sRGB">
<feFlood flood-opacity="0" result="BackgroundImageFix"/>
<feColorMatrix in="SourceAlpha" type="matrix" values="0 0 0 0 0 0 0 0 0 0 0 0 0 0 0 0 0 0 127 0" result="hardAlpha"/>
<feOffset dy="3"/>
<feGaussianBlur stdDeviation="2"/>
<feColorMatrix type="matrix" values="0 0 0 0 0 0 0 0 0 0 0 0 0 0 0 0 0 0 0.12 0"/>
<feBlend mode="normal" in2="BackgroundImageFix" result="effect1_dropShadow_6_369"/>
<feBlend mode="normal" in="SourceGraphic" in2="effect1_dropShadow_6_369" result="shape"/>
</filter>
</defs>
</svg>
